<svg width="77" height="27" viewBox="0 0 77 27" fill="none" xmlns="http://www.w3.org/2000/svg">
<g clip-path="url(#clip0_50_1170)">
<path d="M27.2843 10.1112L21.1211 15.5229H5.85658C4.43278 15.521 3.05748 16.0277 1.98999 16.9473L9.68879 10.1856L9.80691 10.0835L19.4525 1.60547C21.0077 0.239882 23.1912 -0.212075 25.1805 0.419845C27.1697 1.05176 28.6625 2.67156 29.0964 4.66906C29.5304 6.66657 28.8396 8.73831 27.2843 10.1039V10.1112Z" fill="#F15B41"/>
<path d="M5.85671 11.5799C9.09128 11.5799 11.7134 9.02043 11.7134 5.86319C11.7134 2.70594 9.09128 0.146484 5.85671 0.146484C2.62214 0.146484 0 2.70594 0 5.86319C0 9.02043 2.62214 11.5799 5.85671 11.5799Z" fill="#F99D1D"/>
<path d="M5.85673 15.523C4.43293 15.5211 3.05762 16.0277 1.99014 16.9474L1.9408 16.9912C-0.463868 19.1022 -0.66001 22.7163 1.5027 25.0634C3.66541 27.4106 7.368 27.6021 9.77267 25.4911L21.1227 15.5244L5.85673 15.523Z" fill="#272560"/>
<path d="M21.1133 15.5273L9.76202 25.494C8.68718 26.4374 7.29167 26.9575 5.84619 26.9535L23.359 26.9534C26.737 26.9007 29.122 24.4201 29.122 21.2375C29.122 18.0548 26.5566 15.5714 23.359 15.5215L21.1133 15.5273Z" fill="#00B6BD"/>
<path d="M37.6125 22.1741C37.1249 22.1916 36.6532 22.0039 36.318 21.6589C35.9899 21.3106 35.8149 20.8512 35.8306 20.379C35.826 19.9033 35.9468 19.4345 36.1815 19.0173C36.3877 18.6442 36.6396 18.2968 36.9315 17.9825L44.1777 10.0109H37.8615C37.2495 10.0109 36.8115 9.80663 36.5715 9.4009C36.3379 8.99331 36.2213 8.53203 36.234 8.06549C36.2172 7.61585 36.3503 7.17298 36.6135 6.80306C36.8744 6.45298 37.299 6.25436 37.743 6.27473H48.9026C49.3744 6.25358 49.8346 6.42129 50.176 6.73884C50.4925 7.04679 50.653 7.48463 50.653 8.03922C50.6664 8.47108 50.5738 8.89983 50.383 9.28998C50.1999 9.62989 49.9704 9.9441 49.7006 10.224L42.1543 18.4364H49.3046C49.7347 18.426 50.1442 18.6157 50.407 18.9472C50.6871 19.3178 50.8284 19.7705 50.8075 20.2301C50.8279 20.7089 50.71 21.1837 50.467 21.6005C50.2225 21.9814 49.789 22.1755 49.1801 22.1755L37.6125 22.1741Z" fill="#272560"/>
<path d="M55.1424 22.3843C53.1565 22.3843 52.7425 21.3919 52.7425 20.56V8.4173C52.7425 7.78244 52.939 7.26871 53.329 6.89071C53.7189 6.51271 54.3399 6.32006 55.1769 6.32006C55.8819 6.32006 56.4398 6.47622 56.8373 6.78563C57.2348 7.09504 57.4553 7.59417 57.4553 8.23633V20.4958C57.4553 21.1628 57.2393 21.6531 56.8133 21.9552C56.3873 22.2574 55.8399 22.3843 55.1424 22.3843ZM55.1424 5.01677C54.3684 5.01677 53.7339 4.79639 53.254 4.36147C52.774 3.92655 52.5235 3.32671 52.5235 2.58968C52.5051 1.93628 52.7689 1.30527 53.251 0.850008C53.7264 0.396117 54.3639 0.164062 55.1424 0.164062C55.7844 0.165425 56.4084 0.370373 56.9198 0.747846C57.4778 1.14774 57.7613 1.76947 57.7613 2.59552C57.7613 3.33255 57.5153 3.92947 57.0308 4.36876C56.5463 4.80806 55.9119 5.02114 55.1424 5.02114V5.01677Z" fill="#272560"/>
<path d="M62.6331 27.0372C60.7762 27.0372 60.3832 26.0287 60.3832 25.1822V8.00566C60.3671 7.46767 60.5799 6.94705 60.9711 6.56662C61.3596 6.18862 61.9821 5.99597 62.8191 5.99597C63.3397 5.99082 63.854 6.10692 64.319 6.33457C64.8125 6.58122 65.069 7.0643 65.069 7.75755C65.169 7.64566 65.2765 7.53085 65.3915 7.41312C65.7067 7.10175 66.0592 6.82833 66.4414 6.59873C67.3705 6.03452 68.4468 5.74267 69.5418 5.75807C70.5911 5.73824 71.6307 5.95713 72.5777 6.39732C73.4444 6.81359 74.199 7.42136 74.7811 8.17204C75.3879 8.97497 75.8308 9.88358 76.0861 10.8487C76.3781 11.9393 76.5213 13.0625 76.5121 14.1895C76.5228 15.3374 76.358 16.4805 76.0231 17.5813C75.7272 18.5591 75.2414 19.4726 74.5922 20.2726C73.9666 21.0263 73.1738 21.6325 72.2732 22.0458C71.2933 22.483 70.2252 22.701 69.1473 22.6836C68.4255 22.7038 67.7054 22.6051 67.0174 22.3917C66.5233 22.2287 66.0537 22.0025 65.621 21.7189C65.3864 21.5639 65.1701 21.3843 64.976 21.1833V25.0947C64.976 25.7748 64.7855 26.2768 64.409 26.5862C64.0325 26.8956 63.4536 27.0372 62.6331 27.0372ZM68.3419 9.64903C67.8308 9.637 67.3251 9.7531 66.8734 9.98617C66.4484 10.2207 66.0841 10.5467 65.8085 10.9392C65.4988 11.3833 65.2728 11.8775 65.141 12.3987C64.9858 13.0043 64.9097 13.6266 64.9145 14.2508C64.9145 15.6723 65.2145 16.8121 65.8145 17.6397C66.4144 18.4672 67.2289 18.8539 68.3479 18.8539C69.4668 18.8539 70.2813 18.4395 70.8468 17.5857C71.4123 16.7319 71.7138 15.5949 71.7138 14.2508C71.7156 13.6282 71.637 13.008 71.4798 12.4045C71.348 11.8856 71.1269 11.3921 70.8258 10.945C70.558 10.552 70.1981 10.2263 69.7758 9.99493C69.3363 9.76165 68.8425 9.64252 68.3419 9.64903Z" fill="#272560"/>
</g>
<defs>
<clipPath id="clip0_50_1170">
<rect width="77" height="27" fill="white"/>
</clipPath>
</defs>
</svg>
